<svg version="1.1" id="svg184" viewBox="0 0 107 107" class="fill-current object-contain shrink-0">
  <g id="g192" transform="matrix(1.3333333,0,0,-1.3333333,-198.6672,629.58372)">
    <g id="g182">
      <path d="m 0,0 c -3.238,5.457 -7.753,9.792 -13.419,12.883 -1.482,0.81 -3.1,1.541 -4.809,2.174 -0.343,0.128 -0.729,0.077 -1.031,-0.132 -0.304,-0.21 -0.485,-0.554 -0.485,-0.92 V 4.991 c 0.002,-0.472 0.214,-0.844 0.598,-1.053 3.976,-2.223 7.018,-5.218 9.295,-9.156 2.25,-3.886 3.393,-8.3 3.393,-13.116 0,-4.82 -1.143,-9.234 -3.393,-13.122 -2.251,-3.888 -5.398,-6.981 -9.359,-9.19 -3.939,-2.201 -8.4,-3.323 -13.261,-3.338 -4.861,0.015 -9.322,1.137 -13.26,3.338 -3.962,2.209 -7.109,5.302 -9.36,9.19 -2.249,3.888 -3.392,8.302 -3.392,13.122 0,4.816 1.143,9.23 3.392,13.116 2.277,3.938 5.32,6.933 9.296,9.156 0.383,0.209 0.595,0.581 0.597,1.053 v 9.014 c 0,0.366 -0.18,0.71 -0.485,0.92 -0.302,0.209 -0.688,0.26 -1.031,0.132 -1.708,-0.633 -3.327,-1.364 -4.809,-2.174 C -57.188,9.792 -61.704,5.457 -64.941,0 c -3.234,-5.455 -4.875,-11.624 -4.875,-18.334 0,-6.718 1.641,-12.887 4.875,-18.338 3.235,-5.457 7.751,-9.792 13.418,-12.885 5.635,-3.074 12.045,-4.638 19.052,-4.652 7.007,0.014 13.417,1.578 19.052,4.652 5.668,3.093 10.183,7.428 13.419,12.885 3.234,5.451 4.874,11.62 4.874,18.338 C 4.874,-11.624 3.234,-5.455 0,0" style="
            fill: inherit;
            fill-opacity: 1;
            fill-rule: nonzero;
            stroke: none;
          " id="path50" transform="translate(218.8164,446.9917)" />
      <g id="g52" transform="translate(186.3462,431.9878)">
        <path d="m 0,0 c -3.023,0 -5.483,2.274 -5.483,5.07 v 30.062 c 0,2.794 2.46,5.068 5.483,5.068 3.023,0 5.483,-2.274 5.483,-5.068 V 5.07 C 5.483,2.274 3.023,0 0,0" style="
              fill: #00cc78;
              fill-opacity: 1;
              fill-rule: nonzero;
              stroke: none;
            " id="path54" />
      </g>
    </g>
  </g>
</svg>